<?xml version="1.0" encoding="UTF-8"?>
<svg width="24" height="24" viewBox="0 0 492 492" xmlns="http://www.w3.org/2000/svg" fill="white">
<path d="m464.3 207.4 0.8 0.2h-329.2l103.5-103.7c5.1-5.1 7.8-11.9 7.8-19.1s-2.8-14-7.8-19.1l-16.1-16.2c-5.1-5.1-11.8-7.9-19-7.9s-14 2.8-19 7.8l-177.5 177.5c-5 5.1-7.8 11.9-7.8 19.1s2.8 14 7.8 19.1l177.4 177.4c5.1 5.1 11.8 7.8 19 7.8s13.9-2.8 19-7.8l16.1-16.1c5.1-5.1 7.8-11.8 7.8-19s-2.8-13.6-7.8-18.7l-104.6-104.3h330c14.8 0 27.3-12.8 27.3-27.6v-22.8c0-14.8-12.8-26.6-27.7-26.6z"/>
</svg>
