<?xml version="1.0" encoding="UTF-8"?>
<svg fill="white" height="32" width="32" viewBox="0 0 30 30" xmlns="http://www.w3.org/2000/svg">
<path d="m20 14.4-6.2-4.5c-0.2-0.2-0.5-0.2-0.8-0.1s-0.4 0.4-0.4 0.7v9.1c0 0.3 0.2 0.5 0.4 0.7 0.1 0.1 0.2 0.1 0.3 0.1 0.2 0 0.3 0 0.4-0.1l6.2-4.5c0.2-0.1 0.3-0.4 0.3-0.6 0.1-0.4 0-0.6-0.2-0.8z"/>
<path d="m15 0c-8.3 0-15 6.7-15 15s6.7 15 15 15 15-6.7 15-15c0.1-8.3-6.7-15-15-15zm0 27.5c-6.9 0-12.5-5.6-12.5-12.5s5.6-12.5 12.5-12.5 12.5 5.6 12.5 12.5-5.6 12.5-12.5 12.5z"/>
</svg>
